<svg width="107" height="26" viewBox="0 0 107 26" fill="none" xmlns="http://www.w3.org/2000/svg">
<g clip-path="url(#clip0_22323_151993)">
<path d="M28.6513 23.383C26.967 22.3859 25.6634 21.0204 24.7436 19.2897C23.8238 17.5589 23.3639 15.5707 23.3639 13.3339C23.3639 11.0971 23.8695 8.9022 24.8837 6.94089C25.898 4.97958 27.2838 3.42251 29.0473 2.27267C30.8107 1.12283 32.7509 0.54791 34.8738 0.54791C36.619 0.54791 38.1632 0.922206 39.5063 1.67379C40.8465 2.42538 41.8912 3.44347 42.6404 4.73105C43.3897 6.01863 43.7643 7.39903 43.7643 8.86927C43.7643 9.69571 43.6394 10.3096 43.3897 10.7078C43.1399 11.1061 42.8201 11.3606 42.4302 11.4654C42.0404 11.5732 41.5165 11.6271 40.8617 11.6271L26.0594 13.265V12.208L41.4251 10.5701L39.6464 11.3067L39.6921 10.3395C39.6921 8.98904 39.4485 7.65655 38.9672 6.33902C38.483 5.0215 37.7428 3.93155 36.7438 3.07216C35.7448 2.21278 34.5753 1.78459 33.2352 1.78459C31.895 1.78459 30.8321 2.16188 29.8666 2.91047C28.898 3.66206 28.1518 4.68912 27.6218 5.99168C27.0919 7.29423 26.8269 8.75847 26.8269 10.3844C26.8269 12.2559 27.2015 14.1094 27.9508 15.948C28.7 17.7865 29.7996 19.3226 31.2493 20.5473C32.6991 21.775 34.423 22.3859 36.418 22.3859C37.5723 22.3859 38.7175 22.1553 39.8566 21.6942C40.9957 21.233 42.016 20.5743 42.9206 19.7179L43.3897 20.2239C42.1104 21.7271 40.7399 22.8769 39.2718 23.6734C37.8068 24.4699 36.153 24.8682 34.3133 24.8682C32.224 24.8682 30.3356 24.3681 28.6513 23.374V23.383Z" fill="#493944"/>
<path d="M50.5715 24.1076C49.0121 23.5417 47.6537 22.8739 46.5024 22.1074L45.942 18.7956C45.9115 18.4572 45.9724 18.1818 46.1278 17.9692C46.2831 17.7566 46.5024 17.6398 46.7826 17.6248C47.0628 17.6098 47.3278 17.7086 47.5776 17.9242C49.2314 19.3645 51.0406 20.5683 53.0051 21.5355C54.9696 22.5026 56.7026 22.9847 58.1981 22.9847C59.2275 22.9847 60.0682 22.7392 60.726 22.2481C61.3809 21.757 61.7098 21.0983 61.7098 20.2718C61.7098 19.5981 61.4601 18.9603 60.9606 18.3644C60.461 17.7655 59.6905 17.1218 58.6458 16.433C57.6011 15.7443 56.0965 14.846 54.132 13.7411C52.5086 12.8218 51.2081 12.0253 50.2243 11.3486C49.2405 10.6749 48.4456 9.90831 47.8395 9.04893C47.2303 8.18954 46.9258 7.21038 46.9258 6.10546C46.9258 4.51246 47.5867 3.19194 48.9146 2.1499C50.2395 1.10786 52.1035 0.586837 54.5066 0.586837C56.5655 0.586837 58.8255 1.01803 61.2895 1.87442L61.7098 4.63523C61.7707 5.06342 61.725 5.40178 61.5697 5.64732C61.4144 5.89286 61.1798 6.01563 60.8692 6.01563C60.5585 6.01563 60.2448 5.89286 59.9341 5.64732C58.53 4.57534 57.1412 3.692 55.7706 3.00329C54.397 2.31459 53.1513 1.96724 52.0274 1.96724C51.0588 1.96724 50.2883 2.18284 49.7126 2.61103C49.1339 3.03923 48.8476 3.59318 48.8476 4.26692C48.8476 5.24907 49.4233 6.19829 50.5776 7.11756C51.7319 8.03683 53.3523 9.04893 55.4447 10.1539C58.1889 11.6271 60.1473 12.9835 61.3169 14.2232C62.4865 15.4659 63.0713 16.9151 63.0713 18.571C63.0713 20.5024 62.4012 22.0505 61.058 23.2153C59.7179 24.3801 57.86 24.964 55.4904 24.964C53.7756 24.964 52.137 24.6795 50.5776 24.1136L50.5715 24.1076Z" fill="#493944"/>
<path d="M69.5404 24.1076C67.981 23.5417 66.6226 22.8739 65.4713 22.1074L64.9109 18.7956C64.8804 18.4572 64.9413 18.1818 65.0967 17.9692C65.252 17.7566 65.4713 17.6398 65.7515 17.6248C66.0317 17.6098 66.2967 17.7086 66.5464 17.9242C68.2003 19.3645 70.0094 20.5683 71.974 21.5355C73.9385 22.5026 75.6715 22.9847 77.1669 22.9847C78.1964 22.9847 79.037 22.7392 79.6949 22.2481C80.3498 21.757 80.6787 21.0983 80.6787 20.2718C80.6787 19.5981 80.4289 18.9603 79.9294 18.3644C79.4299 17.7655 78.6594 17.1218 77.6147 16.433C76.57 15.7443 75.0654 14.846 73.1009 13.7411C71.4775 12.8218 70.177 12.0253 69.1932 11.3486C68.2094 10.6749 67.4145 9.90831 66.8084 9.04893C66.1992 8.18954 65.8947 7.21038 65.8947 6.10546C65.8947 4.51246 66.5556 3.19194 67.8835 2.1499C69.2084 1.10786 71.0724 0.586837 73.4755 0.586837C75.5344 0.586837 77.7944 1.01803 80.2584 1.87442L80.6787 4.63523C80.7396 5.06342 80.6939 5.40178 80.5386 5.64732C80.3833 5.89286 80.1487 6.01563 79.8381 6.01563C79.5274 6.01563 79.2137 5.89286 78.903 5.64732C77.4989 4.57534 76.1101 3.692 74.7395 3.00329C73.3659 2.31459 72.1202 1.96724 70.9963 1.96724C70.0277 1.96724 69.2572 2.18284 68.6815 2.61103C68.1028 3.03923 67.8165 3.59318 67.8165 4.26692C67.8165 5.24907 68.3922 6.19829 69.5465 7.11756C70.7008 8.03683 72.3212 9.04893 74.4136 10.1539C77.1578 11.6271 79.1162 12.9835 80.2858 14.2232C81.4554 15.4659 82.0401 16.9151 82.0401 18.571C82.0401 20.5024 81.3701 22.0505 80.0269 23.2153C78.6868 24.3801 76.8289 24.964 74.4593 24.964C72.7445 24.964 71.1059 24.6795 69.5465 24.1136L69.5404 24.1076Z" fill="#493944"/>
<path d="M15.0003 1.57498C16.3435 2.29063 17.4095 3.38957 18.1953 4.86879C18.9841 6.34801 19.377 8.16858 19.377 10.3305V24.8412H15.384V10.3665C15.384 8.70458 15.1069 7.23733 14.5495 5.96173C13.9952 4.68613 13.2063 3.68601 12.1891 2.95838C11.1718 2.23075 9.99004 1.86543 8.64686 1.86543C6.67931 1.86543 5.25086 2.51821 4.35846 3.82974C3.46606 5.13828 3.02138 6.80614 3.02138 8.83034C3.02138 10.058 3.14321 11.7888 3.38687 14.0196C3.63053 16.2504 4.02952 19.3226 4.58384 23.2363C4.6539 23.7154 4.55034 24.1136 4.27013 24.431C3.99297 24.7484 3.60921 24.8981 3.12493 24.8742L0 24.8412L0.520822 10.5701C0.612194 8.54288 1.1056 6.76722 1.99801 5.24308C2.89041 3.71895 4.0752 2.54516 5.55848 1.72769C7.03871 0.910229 8.68037 0.5 10.4865 0.5C12.1525 0.5 13.6571 0.859324 15.0003 1.57498Z" fill="#493944"/>
<path d="M89.6697 23.9998C88.0098 22.9997 86.7184 21.6313 85.7955 19.8915C84.8727 18.1518 84.4097 16.1905 84.4097 14.0046C84.4097 11.666 84.9275 9.51006 85.96 7.53977C86.9925 5.56947 88.424 4.00641 90.2576 2.85358C92.088 1.70074 94.1013 1.12283 96.2912 1.12283C98.2953 1.12283 100.12 1.62289 101.761 2.62301C103.406 3.62313 104.688 5.01551 105.611 6.80016C106.534 8.5848 106.997 10.633 106.997 12.9416C106.997 15.2503 106.494 17.4511 105.495 19.3585C104.493 21.266 103.101 22.7691 101.317 23.8591C99.5318 24.952 97.543 25.497 95.3531 25.497C93.1632 25.497 91.3297 24.9969 89.6697 23.9968V23.9998ZM101.505 22.7991C102.568 22.1074 103.4 21.1612 103.994 19.9604C104.588 18.7597 104.886 17.4212 104.886 15.945C104.886 13.9148 104.362 11.8906 103.312 9.87238C102.264 7.85717 100.878 6.19529 99.1542 4.88675C97.4333 3.57821 95.6333 2.92544 93.7541 2.92544C92.3774 2.92544 91.156 3.27279 90.09 3.96449C89.024 4.65619 88.1864 5.59642 87.5773 6.78219C86.9651 7.96796 86.6605 9.31543 86.6605 10.8216C86.6605 12.8847 87.1935 14.9299 88.2565 16.9631C89.3195 18.9932 90.7053 20.6491 92.4139 21.9247C94.1196 23.2033 95.9135 23.8411 97.7897 23.8411C99.1999 23.8411 100.436 23.4938 101.499 22.8021L101.505 22.7991Z" fill="#493944"/>
</g>
<defs>
<clipPath id="clip0_22323_151993">
<rect width="107" height="25" fill="white" transform="translate(0 0.5)"/>
</clipPath>
</defs>
</svg>
