<svg width="32" height="32" viewBox="0 0 32 32" fill="none" xmlns="http://www.w3.org/2000/svg">
  <circle cx="16" cy="16" r="16" fill="#FAB5A7"/>
  <g transform="translate(6, 5) scale(1.3)">
    <path d="M15.0003 1.57498C16.3435 2.29063 17.4095 3.38957 18.1953 4.86879C18.9841 6.34801 19.377 8.16858 19.377 10.3305V24.8412H15.384V10.3665C15.384 8.70458 15.1069 7.23733 14.5495 5.96173C13.9952 4.68613 13.2063 3.68601 12.1891 2.95838C11.1718 2.23075 9.99004 1.86543 8.64686 1.86543C6.67931 1.86543 5.25086 2.51821 4.35846 3.82974C3.46606 5.13828 3.02138 6.80614 3.02138 8.83034C3.02138 10.058 3.14321 11.7888 3.38687 14.0196C3.63053 16.2504 4.02952 19.3226 4.58384 23.2363C4.6539 23.7154 4.55034 24.1136 4.27013 24.431C3.99297 24.7484 3.60921 24.8981 3.12493 24.8742L0 24.8412L0.520822 10.5701C0.612194 8.54288 1.1056 6.76722 1.99801 5.24308C2.89041 3.71895 4.0752 2.54516 5.55848 1.72769C7.03871 0.910229 8.68037 0.5 10.4865 0.5C12.1525 0.5 13.6571 0.859324 15.0003 1.57498Z" fill="#493944"/>
  </g>
</svg>
